<svg width="150" height="115" viewBox="0 0 150 115" fill="none" xmlns="http://www.w3.org/2000/svg">
<path d="M6.7602 107.061H3.89031L3.18878 110.696H0.956633L1.65816 106.997H0V105.02H2.04082L2.6148 101.895H0V99.918H2.99745L3.69898 96.2191H5.93112L5.22959 99.918H8.09949L8.80102 96.2191H11.0332L10.3316 99.918H11.9898V101.895H9.94898L9.375 105.02H12.0536V106.997H8.99235L8.29082 110.696H6.05867L6.7602 107.061ZM4.27296 105.084H7.14286L7.71684 101.959H4.84694L4.27296 105.084Z" fill="#25292E"/>
<path d="M18.368 110.889C17.6027 110.889 16.8374 110.889 16.0721 110.825C15.3068 110.761 14.6052 110.698 14.0312 110.506V96.4756C14.3501 96.4118 14.669 96.3481 14.9879 96.3481C15.3068 96.2843 15.6894 96.2843 16.0721 96.2205C16.4547 96.2205 16.7736 96.1567 17.1562 96.1567C17.5389 96.1567 17.8578 96.1567 18.1767 96.1567C19.0695 96.1567 19.8348 96.2205 20.6001 96.3481C21.3654 96.4756 22.0032 96.6669 22.5772 96.9858C23.1511 97.3047 23.5338 97.6873 23.8527 98.1976C24.1716 98.7078 24.2991 99.3455 24.2991 100.047C24.2991 100.749 24.1078 101.323 23.7889 101.769C23.47 102.279 23.0236 102.662 22.4496 102.917C23.3425 103.236 23.9802 103.618 24.3629 104.192C24.8093 104.766 25.0006 105.468 25.0006 106.361C25.0006 107.828 24.4904 108.976 23.4062 109.677C22.3221 110.379 20.6001 110.889 18.368 110.889ZM16.5823 102.152H18.4318C19.4522 102.152 20.2175 102.024 20.7915 101.705C21.3654 101.45 21.6205 100.94 21.6205 100.175C21.6205 99.4731 21.3017 98.9629 20.7277 98.7078C20.1537 98.3889 19.3884 98.2613 18.4318 98.2613C18.0491 98.2613 17.6665 98.2613 17.3476 98.2613C17.0287 98.2613 16.7736 98.3251 16.5185 98.3251V102.152H16.5823ZM16.5823 104.192V108.593C16.9011 108.593 17.1562 108.657 17.5389 108.657C17.8578 108.657 18.1767 108.657 18.4318 108.657C18.942 108.657 19.4522 108.593 19.9624 108.529C20.4088 108.465 20.8552 108.338 21.1741 108.147C21.493 107.955 21.8119 107.764 22.0032 107.445C22.1945 107.126 22.3221 106.807 22.3221 106.297C22.3221 105.468 22.0032 104.894 21.4292 104.575C20.8552 104.256 20.0261 104.065 18.942 104.065H16.5823V104.192Z" fill="#25292E"/>
<path d="M30.4851 99.5356C31.3142 99.5356 32.0157 99.6632 32.5897 99.8545C33.1637 100.046 33.6101 100.365 33.929 100.747C34.2478 101.13 34.5029 101.576 34.6305 102.087C34.7581 102.597 34.8218 103.235 34.8218 103.872V110.505C34.4392 110.569 33.8652 110.696 33.0361 110.824C32.2708 110.951 31.3779 111.015 30.3575 111.015C29.7198 111.015 29.082 110.951 28.5718 110.824C28.0616 110.696 27.5514 110.505 27.1688 110.25C26.7861 109.995 26.4672 109.612 26.2759 109.166C26.0846 108.719 25.957 108.145 25.957 107.508C25.957 106.87 26.0846 106.36 26.3397 105.913C26.5948 105.467 26.9137 105.148 27.3601 104.893C27.8065 104.638 28.2529 104.446 28.8269 104.319C29.4009 104.191 29.9749 104.127 30.5489 104.127C30.804 104.127 31.1228 104.127 31.4417 104.191C31.7606 104.255 32.0795 104.255 32.3984 104.383V103.936C32.3984 103.617 32.3346 103.362 32.2708 103.107C32.207 102.852 32.0795 102.597 31.8882 102.406C31.6968 102.214 31.5055 102.023 31.1866 101.959C30.9315 101.832 30.5489 101.768 30.1024 101.768C29.5285 101.768 28.9545 101.832 28.5081 101.895C27.9978 101.959 27.6152 102.087 27.2963 102.214L26.9774 100.173C27.2963 100.046 27.7427 99.9821 28.3805 99.8545C29.1458 99.5994 29.7836 99.5356 30.4851 99.5356ZM30.6764 108.974C31.4417 108.974 32.0157 108.911 32.4621 108.847V106.041C32.3346 105.977 32.1433 105.977 31.8882 105.913C31.6331 105.849 31.3142 105.849 30.9953 105.849C30.7402 105.849 30.4213 105.849 30.1662 105.913C29.9111 105.977 29.656 106.041 29.4009 106.168C29.1458 106.296 29.0183 106.423 28.8269 106.615C28.6994 106.806 28.6356 107.061 28.6356 107.38C28.6356 107.954 28.8269 108.4 29.2096 108.592C29.5285 108.847 30.0387 108.974 30.6764 108.974Z" fill="#25292E"/>
<path d="M39.9893 108.909C40.6271 108.909 41.1373 108.846 41.4562 108.654C41.775 108.463 41.9026 108.208 41.9026 107.825C41.9026 107.443 41.7113 107.187 41.3924 106.932C41.0735 106.677 40.4995 106.422 39.798 106.167C39.3516 105.976 38.9051 105.848 38.5225 105.657C38.1398 105.465 37.821 105.274 37.5021 105.019C37.247 104.764 36.9919 104.445 36.8643 104.126C36.673 103.744 36.6092 103.361 36.6092 102.851C36.6092 101.83 36.9919 101.065 37.6934 100.491C38.4587 99.917 39.4153 99.5981 40.6908 99.5981C41.3286 99.5981 41.9664 99.6619 42.5403 99.7895C43.1143 99.917 43.5607 100.045 43.8796 100.108L43.4332 102.149C43.1781 102.022 42.7954 101.894 42.349 101.83C41.9026 101.767 41.3924 101.703 40.8184 101.703C40.3082 101.703 39.8618 101.767 39.5429 101.958C39.224 102.149 39.0327 102.404 39.0327 102.787C39.0327 102.978 39.0327 103.106 39.0965 103.297C39.1602 103.488 39.2878 103.552 39.4153 103.68C39.5429 103.807 39.798 103.935 39.9893 104.062C40.2444 104.19 40.5633 104.318 40.8822 104.445C41.4562 104.636 41.9664 104.892 42.4128 105.083C42.8592 105.274 43.1781 105.529 43.4332 105.784C43.6883 106.039 43.8796 106.358 44.0072 106.741C44.1347 107.06 44.1985 107.506 44.1985 108.017C44.1985 109.037 43.8158 109.866 43.0505 110.376C42.2852 110.886 41.2011 111.205 39.7342 111.205C38.7776 111.205 38.0123 111.142 37.4383 110.95C36.8643 110.823 36.4179 110.631 36.2266 110.568L36.673 108.463C37.0556 108.59 37.5021 108.782 38.0123 108.909C38.7138 108.846 39.3516 108.909 39.9893 108.909Z" fill="#25292E"/>
<path d="M45.4727 105.339C45.4727 104.383 45.6002 103.553 45.9191 102.788C46.1742 102.087 46.5568 101.449 47.067 101.002C47.5772 100.556 48.0875 100.173 48.6614 99.9183C49.2992 99.6632 49.8732 99.5356 50.5109 99.5356C52.0415 99.5356 53.1895 99.9821 54.0186 100.939C54.8477 101.895 55.2941 103.235 55.2941 105.084C55.2941 105.212 55.2941 105.403 55.2941 105.531C55.2941 105.722 55.2941 105.849 55.2941 105.977H48.0237C48.0875 106.87 48.4063 107.508 48.9803 108.018C49.5543 108.528 50.3196 108.719 51.34 108.719C51.9778 108.719 52.488 108.656 52.9982 108.528C53.5084 108.4 53.891 108.273 54.2099 108.145L54.5288 110.186C54.4012 110.25 54.2099 110.314 53.9548 110.377C53.6997 110.441 53.4446 110.505 53.1257 110.569C52.8068 110.633 52.488 110.696 52.1053 110.696C51.7227 110.76 51.4038 110.76 51.0211 110.76C50.0645 110.76 49.2354 110.633 48.5339 110.314C47.8323 110.059 47.2584 109.612 46.8119 109.102C46.3655 108.592 45.9829 108.018 45.7915 107.316C45.6002 106.615 45.4727 106.168 45.4727 105.339ZM52.7431 104.191C52.7431 103.872 52.6793 103.49 52.6155 103.171C52.488 102.852 52.3604 102.597 52.1691 102.342C51.9778 102.087 51.7227 101.959 51.4676 101.832C51.2124 101.704 50.8936 101.64 50.5109 101.64C50.1283 101.64 49.8094 101.704 49.4905 101.832C49.1716 101.959 48.9803 102.15 48.7252 102.406C48.5339 102.661 48.3426 102.916 48.2788 103.235C48.1512 103.553 48.0875 103.872 48.0237 104.191H52.7431Z" fill="#25292E"/>
<path d="M67.0258 105.275C67.0258 106.105 66.8983 106.87 66.707 107.571C66.5156 108.273 66.1967 108.847 65.7503 109.357C65.3039 109.867 64.8575 110.25 64.2197 110.505C63.582 110.76 62.9442 110.951 62.1789 110.951C61.6687 110.951 61.2223 110.888 60.7758 110.76C60.3294 110.633 60.0105 110.505 59.6916 110.314V114.523H57.1406V100.11C57.6508 99.9821 58.2886 99.8545 59.0539 99.727C59.8192 99.5994 60.5845 99.5356 61.4136 99.5356C62.3064 99.5356 63.0717 99.6632 63.7095 99.9183C64.411 100.173 64.985 100.556 65.4314 101.066C65.9416 101.576 66.2605 102.15 66.5156 102.852C66.8983 103.617 67.0258 104.383 67.0258 105.275ZM64.4748 105.339C64.4748 104.191 64.2197 103.362 63.7095 102.724C63.1993 102.087 62.3702 101.768 61.286 101.768C61.0309 101.768 60.7758 101.768 60.5207 101.768C60.2656 101.768 60.0105 101.832 59.7554 101.895V108.145C59.9467 108.273 60.2656 108.464 60.6483 108.592C61.0309 108.719 61.4136 108.783 61.7962 108.783C62.6891 108.783 63.3906 108.464 63.8371 107.826C64.2197 107.189 64.4748 106.36 64.4748 105.339Z" fill="#25292E"/>
<path d="M72.5124 99.5356C73.3415 99.5356 74.043 99.6632 74.617 99.8545C75.191 100.046 75.6374 100.365 75.9563 100.747C76.2752 101.13 76.5303 101.576 76.6578 102.087C76.7854 102.597 76.8492 103.235 76.8492 103.872V110.505C76.4665 110.569 75.8925 110.696 75.0635 110.824C74.2981 110.951 73.4053 111.015 72.3849 111.015C71.7471 111.015 71.1094 110.951 70.5992 110.824C70.089 110.696 69.5788 110.505 69.1961 110.25C68.8135 109.995 68.4946 109.612 68.3033 109.166C68.1119 108.719 67.9844 108.145 67.9844 107.508C67.9844 106.87 68.1119 106.36 68.367 105.913C68.6221 105.467 68.941 105.148 69.3874 104.893C69.8339 104.638 70.2803 104.446 70.8543 104.319C71.4283 104.191 72.0022 104.127 72.5762 104.127C72.8313 104.127 73.1502 104.127 73.4691 104.191C73.7879 104.255 74.1068 104.255 74.4257 104.383V103.936C74.4257 103.617 74.3619 103.362 74.2982 103.107C74.2344 102.852 74.1068 102.597 73.9155 102.406C73.7242 102.214 73.5328 102.023 73.214 101.959C72.9589 101.832 72.5762 101.768 72.1298 101.768C71.5558 101.768 70.9818 101.832 70.5354 101.895C70.0252 101.959 69.6425 102.087 69.3237 102.214L69.0048 100.173C69.3237 100.046 69.7701 99.9821 70.4078 99.8545C71.1732 99.5994 71.8109 99.5356 72.5124 99.5356ZM72.7675 108.974C73.5328 108.974 74.1068 108.911 74.5533 108.847V106.041C74.4257 105.977 74.2344 105.977 73.9793 105.913C73.7242 105.849 73.4053 105.849 73.0864 105.849C72.8313 105.849 72.5124 105.849 72.2573 105.913C72.0022 105.977 71.7471 106.041 71.492 106.168C71.2369 106.296 71.1094 106.423 70.918 106.615C70.7905 106.806 70.7267 107.061 70.7267 107.38C70.7267 107.954 70.9181 108.4 71.3007 108.592C71.6196 108.847 72.1298 108.974 72.7675 108.974Z" fill="#25292E"/>
<path d="M85.5879 103.874C85.2691 105.086 84.9502 106.298 84.5675 107.446C84.1849 108.594 83.866 109.678 83.4833 110.698H81.4425C81.1874 110.06 80.8685 109.359 80.5497 108.53C80.2308 107.701 79.9119 106.808 79.6568 105.915C79.3379 104.958 79.0191 104.002 78.764 102.981C78.4451 101.961 78.19 100.877 77.8711 99.8563H80.5497C80.6772 100.43 80.8048 101.068 80.9961 101.77C81.1874 102.471 81.315 103.109 81.5063 103.81C81.6976 104.512 81.8889 105.213 82.0803 105.851C82.2716 106.489 82.4629 107.127 82.6543 107.701C82.8456 107.063 83.0369 106.425 83.292 105.724C83.5471 105.022 83.6747 104.384 83.866 103.683C84.0573 102.981 84.2486 102.344 84.3762 101.706C84.5037 101.068 84.6951 100.43 84.8226 99.8563H86.7359C86.8634 100.43 86.991 101.004 87.1823 101.706C87.3736 102.407 87.5012 103.045 87.6925 103.683C87.8839 104.384 88.0752 105.022 88.2665 105.724C88.4578 106.425 88.6492 107.063 88.9043 107.701C89.0956 107.127 89.2869 106.553 89.4782 105.851C89.6696 105.213 89.8609 104.512 90.0522 103.81C90.2435 103.109 90.4349 102.407 90.5624 101.77C90.7537 101.068 90.8813 100.494 91.0088 99.8563H93.6236C93.3048 100.94 93.0497 101.961 92.7308 102.981C92.4119 104.002 92.093 104.958 91.8379 105.915C91.5191 106.872 91.2002 107.701 90.9451 108.53C90.69 109.359 90.3711 110.06 90.0522 110.698H88.0114C87.6287 109.678 87.3099 108.594 86.9272 107.446C86.2895 106.298 85.9068 105.086 85.5879 103.874Z" fill="#25292E"/>
<path d="M97.3214 108.909C97.9591 108.909 98.4693 108.846 98.7882 108.654C99.1071 108.463 99.2346 108.208 99.2346 107.825C99.2346 107.443 99.0433 107.187 98.7244 106.932C98.4055 106.677 97.8316 106.422 97.13 106.167C96.6836 105.976 96.2372 105.848 95.8545 105.657C95.4719 105.465 95.153 105.274 94.8341 105.019C94.579 104.764 94.3239 104.445 94.1963 104.126C94.005 103.744 93.9413 103.361 93.9413 102.851C93.9413 101.83 94.3239 101.065 95.0254 100.491C95.7907 99.917 96.7474 99.5981 98.0229 99.5981C98.6606 99.5981 99.2984 99.6619 99.8724 99.7895C100.446 99.917 100.893 100.045 101.212 100.108L100.765 102.149C100.51 102.022 100.127 101.894 99.681 101.83C99.2346 101.767 98.7244 101.703 98.1504 101.703C97.6402 101.703 97.1938 101.767 96.8749 101.958C96.556 102.149 96.3647 102.404 96.3647 102.787C96.3647 102.978 96.3647 103.106 96.4285 103.297C96.4923 103.488 96.6198 103.552 96.7474 103.68C96.8749 103.807 97.13 103.935 97.3214 104.062C97.5765 104.19 97.8953 104.318 98.2142 104.445C98.7882 104.636 99.2984 104.892 99.7448 105.083C100.191 105.274 100.51 105.529 100.765 105.784C101.02 106.039 101.212 106.358 101.339 106.741C101.467 107.06 101.531 107.506 101.531 108.017C101.531 109.037 101.148 109.866 100.383 110.376C99.6173 110.886 98.5331 111.205 97.0662 111.205C96.1096 111.205 95.3443 111.142 94.7703 110.95C94.1964 110.823 93.7499 110.631 93.5586 110.568L94.005 108.463C94.3877 108.59 94.8341 108.782 95.3443 108.909C96.1096 108.846 96.6836 108.909 97.3214 108.909Z" fill="#25292E"/>
<path d="M110.268 98.2608C108.801 98.2608 107.653 98.7073 106.888 99.6639C106.122 100.557 105.74 101.896 105.74 103.49C105.74 104.256 105.803 104.957 105.995 105.595C106.186 106.233 106.441 106.807 106.824 107.253C107.207 107.7 107.653 108.082 108.227 108.337C108.801 108.592 109.439 108.72 110.14 108.72C110.587 108.72 110.969 108.72 111.352 108.656C111.671 108.592 111.926 108.592 112.117 108.529V103.363H114.732V110.314C114.349 110.442 113.775 110.633 112.883 110.761C111.99 110.888 111.033 111.016 109.885 111.016C108.865 111.016 107.908 110.825 107.015 110.506C106.122 110.187 105.421 109.677 104.847 109.039C104.273 108.401 103.763 107.636 103.444 106.679C103.125 105.723 102.934 104.702 102.934 103.49C102.934 102.279 103.125 101.194 103.508 100.302C103.89 99.345 104.4 98.5797 105.038 97.9419C105.676 97.3042 106.441 96.794 107.27 96.4751C108.099 96.1562 109.056 95.9649 110.013 95.9649C110.65 95.9649 111.288 96.0287 111.798 96.0925C112.309 96.1562 112.755 96.2838 113.138 96.4113C113.52 96.5389 113.839 96.6664 114.094 96.794C114.349 96.9215 114.477 96.9853 114.605 97.0491L113.839 99.2175C113.393 98.9624 112.883 98.771 112.309 98.5797C111.607 98.3246 110.969 98.2608 110.268 98.2608Z" fill="#25292E"/>
<path d="M119.706 96.6027C119.706 97.0491 119.578 97.4318 119.259 97.7506C118.94 98.0058 118.622 98.1971 118.175 98.1971C117.729 98.1971 117.346 98.0695 117.091 97.7506C116.772 97.4955 116.645 97.1129 116.645 96.6027C116.645 96.0925 116.772 95.7098 117.091 95.4547C117.41 95.1996 117.792 95.0083 118.175 95.0083C118.622 95.0083 118.94 95.1358 119.259 95.4547C119.578 95.7736 119.706 96.1563 119.706 96.6027ZM119.451 110.697H116.9V99.7915H119.451V110.697Z" fill="#25292E"/>
<path d="M124.747 110.695C124.045 109.292 123.344 107.634 122.579 105.784C121.877 103.935 121.176 101.958 120.602 99.7896H123.28C123.408 100.427 123.599 101.065 123.79 101.767C123.982 102.468 124.237 103.17 124.428 103.871C124.683 104.573 124.875 105.274 125.13 105.912C125.385 106.55 125.576 107.188 125.831 107.698C126.022 107.188 126.278 106.55 126.469 105.912C126.724 105.274 126.915 104.573 127.17 103.871C127.426 103.17 127.617 102.468 127.808 101.767C128 101.065 128.191 100.427 128.382 99.7896H130.997C130.423 101.894 129.721 103.935 129.02 105.784C128.318 107.634 127.553 109.292 126.852 110.695H124.747Z" fill="#25292E"/>
<path d="M131.312 105.339C131.312 104.383 131.44 103.553 131.759 102.788C132.014 102.087 132.397 101.449 132.907 101.002C133.417 100.556 133.927 100.173 134.501 99.9183C135.139 99.6632 135.713 99.5356 136.351 99.5356C137.881 99.5356 139.029 99.9821 139.858 100.939C140.688 101.895 141.134 103.235 141.134 105.084C141.134 105.212 141.134 105.403 141.134 105.531C141.134 105.722 141.134 105.849 141.134 105.977H133.927C133.991 106.87 134.31 107.508 134.884 108.018C135.458 108.528 136.223 108.719 137.244 108.719C137.881 108.719 138.392 108.656 138.902 108.528C139.412 108.4 139.795 108.273 140.114 108.145L140.432 110.186C140.305 110.25 140.114 110.314 139.858 110.377C139.603 110.441 139.348 110.505 139.029 110.569C138.71 110.633 138.392 110.696 138.009 110.696C137.626 110.76 137.307 110.76 136.925 110.76C135.968 110.76 135.139 110.633 134.438 110.314C133.736 110.059 133.162 109.612 132.716 109.102C132.269 108.592 131.886 108.018 131.695 107.316C131.504 106.615 131.312 106.168 131.312 105.339ZM138.647 104.191C138.647 103.872 138.583 103.49 138.519 103.171C138.392 102.852 138.264 102.597 138.073 102.342C137.881 102.087 137.626 101.959 137.371 101.832C137.116 101.704 136.797 101.64 136.415 101.64C136.032 101.64 135.713 101.704 135.394 101.832C135.075 101.959 134.884 102.15 134.629 102.406C134.438 102.661 134.246 102.916 134.182 103.235C134.055 103.553 133.991 103.872 133.927 104.191H138.647Z" fill="#25292E"/>
<path d="M145.79 108.909C146.428 108.909 146.938 108.846 147.257 108.654C147.576 108.463 147.703 108.208 147.703 107.825C147.703 107.443 147.512 107.187 147.193 106.932C146.874 106.677 146.3 106.422 145.599 106.167C145.152 105.976 144.706 105.848 144.323 105.657C143.941 105.465 143.622 105.274 143.303 105.019C143.048 104.764 142.793 104.445 142.665 104.126C142.474 103.744 142.41 103.361 142.41 102.851C142.41 101.83 142.793 101.065 143.494 100.491C144.259 99.917 145.216 99.5981 146.492 99.5981C147.129 99.5981 147.767 99.6619 148.341 99.7895C148.915 99.917 149.362 100.045 149.68 100.108L149.234 102.149C148.979 102.022 148.596 101.894 148.15 101.83C147.703 101.767 147.193 101.703 146.619 101.703C146.109 101.703 145.663 101.767 145.344 101.958C145.025 102.149 144.833 102.404 144.833 102.787C144.833 102.978 144.833 103.106 144.897 103.297C144.961 103.488 145.089 103.552 145.216 103.68C145.344 103.807 145.599 103.935 145.79 104.062C146.045 104.19 146.364 104.318 146.683 104.445C147.257 104.636 147.767 104.892 148.214 105.083C148.66 105.274 148.979 105.529 149.234 105.784C149.489 106.039 149.68 106.358 149.808 106.741C149.936 107.06 149.999 107.506 149.999 108.017C149.999 109.037 149.617 109.866 148.851 110.376C148.086 110.886 147.002 111.205 145.535 111.205C144.578 111.205 143.813 111.142 143.239 110.95C142.665 110.823 142.219 110.631 142.027 110.568L142.474 108.463C142.856 108.59 143.303 108.782 143.813 108.909C144.578 108.846 145.152 108.909 145.79 108.909Z" fill="#25292E"/>
<path d="M72.9601 24.3451C72.8964 24.3451 72.8326 24.3451 72.8326 24.3451C66.455 24.2813 62.2459 20.1997 62.0545 20.0083C61.5443 19.4981 61.5443 18.7328 62.0545 18.2226C62.5647 17.7124 63.33 17.7124 63.8402 18.2226C63.904 18.2864 67.5392 21.7303 72.8964 21.794C78.5724 21.8578 93.4321 17.7762 96.2382 15.4165C96.8122 14.9063 97.0035 14.5236 96.9397 14.4599C96.6846 13.9497 94.8351 13.3757 92.6668 13.9497C88.7127 14.9701 82.1438 17.1384 82.08 17.1384C81.3785 17.3298 80.677 17.0109 80.4856 16.3094C80.2943 15.6716 80.6132 14.9063 81.3147 14.715C81.5698 14.6512 88.0112 12.4828 92.029 11.4624C95.154 10.6333 98.279 11.4624 99.1719 13.3119C99.4907 13.9497 100.001 15.544 97.8326 17.3935C94.3249 20.391 79.0826 24.3451 72.9601 24.3451Z" fill="#F9A524"/>
<path d="M111.418 47.8152C110.652 47.8152 110.142 47.1775 110.142 46.476C110.461 38.8867 108.229 34.805 107.208 32.828C107.017 32.5091 106.89 32.254 106.762 31.9989C106.507 31.6163 104.657 28.7464 101.277 26.004C100.703 25.5576 100.64 24.7285 101.086 24.2183C101.532 23.6443 102.361 23.5805 102.872 24.027C106.89 27.2795 108.93 30.6596 108.994 30.7872C108.994 30.851 109.058 30.851 109.058 30.9147C109.122 31.1061 109.249 31.3612 109.441 31.6163C110.588 33.7846 113.012 38.3127 112.693 46.5397C112.693 47.2413 112.119 47.8152 111.418 47.8152Z" fill="#EF4E4C"/>
<path d="M52.8688 40.6714C52.7413 40.6714 52.55 40.6714 52.4224 40.6076C51.7847 40.3525 51.4658 39.5872 51.7209 38.9494C52.8051 36.2071 55.4836 34.4214 58.4811 34.4214C61.4148 34.4214 64.0295 36.1433 65.1775 38.8857C65.4326 39.5234 65.1775 40.2887 64.476 40.5438C63.8382 40.7989 63.0729 40.5438 62.8178 39.8423C62.0525 38.1204 60.3943 36.9724 58.4811 36.9724C56.5678 36.9724 54.8459 38.1204 54.1443 39.9061C53.8892 40.3525 53.379 40.6714 52.8688 40.6714Z" fill="#EF4E4C"/>
<path d="M85.2048 40.6714C85.0772 40.6714 84.8859 40.6714 84.7583 40.6076C84.1206 40.3525 83.8017 39.5872 84.0568 38.9494C85.141 36.2071 87.8196 34.4214 90.817 34.4214C93.7507 34.4214 96.3655 36.1433 97.5134 38.8857C97.7685 39.5234 97.5134 40.2887 96.8119 40.5438C96.1742 40.7989 95.4089 40.5438 95.1538 39.8423C94.3884 38.1204 92.7303 36.9724 90.817 36.9724C88.9037 36.9724 87.1818 38.1204 86.4803 39.9061C86.1614 40.3525 85.715 40.6714 85.2048 40.6714Z" fill="#EF4E4C"/>
<path d="M75.5113 48.1354C74.4271 48.1354 73.4705 47.6252 72.8965 46.7324L70.9194 43.6712C70.2817 42.7145 70.2179 41.5028 70.7919 40.4824C71.3659 39.462 72.3863 38.8242 73.5342 38.8242H77.4883C78.6363 38.8242 79.6567 39.462 80.2307 40.4824C80.8046 41.5028 80.7409 42.7145 80.1031 43.6712L78.1261 46.7324C77.5521 47.5615 76.5955 48.1354 75.5113 48.1354ZM73.5342 41.3752C73.2154 41.3752 73.0878 41.5666 73.024 41.6941C72.9603 41.8217 72.8965 42.013 73.024 42.2681L75.0011 45.3293C75.1286 45.5844 75.3837 45.5844 75.5113 45.5844C75.6388 45.5844 75.8302 45.5206 76.0215 45.3293L77.9985 42.2681C78.1899 42.013 78.0623 41.8217 77.9985 41.6941C77.9348 41.5666 77.8072 41.3752 77.4883 41.3752H73.5342Z" fill="#EF4E4C"/>
<path d="M69.8988 56.4273C65.4345 56.4273 61.7993 52.9196 61.6717 52.7283C61.1615 52.2181 61.1615 51.4528 61.6717 50.9426C62.1819 50.4324 62.9472 50.4324 63.4574 50.9426C63.5212 51.0064 66.71 54.0676 70.1539 53.8763C71.6845 53.8125 73.0238 53.111 74.2993 51.8355V46.861C74.2993 46.1594 74.8732 45.5854 75.5748 45.5854C76.2763 45.5854 76.8503 46.1594 76.8503 46.861V52.3457C76.8503 52.6645 76.7227 52.9196 76.5314 53.1747C74.7457 55.2793 72.6411 56.3635 70.2814 56.4273C70.0901 56.4273 69.9625 56.4273 69.8988 56.4273Z" fill="#EF4E4C"/>
<path d="M81.1877 56.4247C81.0602 56.4247 80.9326 56.4247 80.8689 56.4247C78.5092 56.2971 76.4046 55.2129 74.6189 53.1721C74.1724 52.6619 74.2362 51.8328 74.7464 51.3864C75.2566 50.94 76.0857 51.0037 76.5321 51.514C77.8714 53.0446 79.3382 53.8099 80.9964 53.9374C84.5041 54.065 87.6928 51.0037 87.6928 51.0037C88.203 50.4935 89.0321 50.4935 89.4785 51.0037C89.9888 51.514 89.9888 52.343 89.4785 52.7895C89.2872 52.917 85.652 56.4247 81.1877 56.4247Z" fill="#EF4E4C"/>
<path d="M53.8926 71.7943C53.5737 71.7943 53.1911 71.6667 52.936 71.4116C50.5125 68.7968 44.964 62.3555 46.3033 59.4218C46.6222 58.7203 47.3875 57.8912 49.1732 57.8912C53.5737 57.955 59.0584 65.2892 59.6324 66.1183C60.0788 66.6923 59.9513 67.4576 59.3773 67.904C58.8033 68.3504 58.038 68.2229 57.5916 67.6489C55.5508 64.9065 51.4691 60.506 49.1732 60.4423C48.9181 60.4423 48.7268 60.4423 48.663 60.506C48.4717 61.654 51.4054 65.9907 54.8492 69.6897C55.3594 70.1999 55.2957 71.029 54.7855 71.4754C54.5304 71.6667 54.2115 71.7943 53.8926 71.7943Z" fill="#00BCF1"/>
<path d="M40.9464 37.9945C40.4362 37.9945 39.926 37.6756 39.7347 37.1016C36.227 26.4511 41.903 19.0532 42.1581 18.7343C42.6046 18.1603 43.3699 18.0965 43.9439 18.543C44.5178 18.9894 44.5816 19.7547 44.1352 20.3287C43.9439 20.5838 39.0331 27.0251 42.1581 36.2726C42.3495 36.9103 42.0306 37.6756 41.3291 37.867C41.2015 37.9307 41.074 37.9945 40.9464 37.9945Z" fill="#F9A524"/>
<path d="M100.257 29.8311C98.6628 29.8311 97.196 28.6194 95.8567 27.599C94.0072 26.1322 89.5429 20.775 89.3516 20.5837C88.9051 20.0735 88.9689 19.2444 89.5429 18.798C90.0531 18.3515 90.8822 18.4153 91.3286 18.9893C92.5403 20.4561 96.1118 24.5378 97.4511 25.6857C99.2368 27.0888 100.066 27.599 100.64 27.2163C100.959 26.9612 101.022 26.8337 101.022 26.7061C101.086 26.0046 100.448 23.9 95.2827 17.8413C94.8363 17.3311 94.9 16.5021 95.4102 16.0556C95.9204 15.6092 96.7495 15.673 97.1959 16.1832C103.063 23.0072 103.701 25.4306 103.51 26.9612C103.382 28.173 102.617 28.8107 102.107 29.1934C101.533 29.6398 100.895 29.8311 100.257 29.8311Z" fill="#F9A524"/>
<path d="M108.548 30.9142C106.953 30.9142 104.785 29.9576 102.17 26.3862C100.385 23.8989 98.4713 21.7943 98.4075 21.7306C98.0249 21.1566 98.1524 20.3913 98.7264 19.9448C99.3004 19.5622 100.066 19.6897 100.512 20.2637C103.573 24.5367 107.336 28.427 108.484 28.427C108.484 28.427 108.484 28.427 108.548 28.427H108.612C108.931 27.9806 108.42 24.9831 104.721 19.2433C101.66 14.4602 97.706 9.86832 94.8999 7.76372C90.3718 4.38362 78.4458 -4.60872 50.5121 13.3122C49.9382 13.6948 49.1091 13.5035 48.7264 12.9295C48.3438 12.3556 48.5351 11.5265 49.1091 11.1438C78.5734 -7.73372 92.03 2.34281 96.4305 5.72291C102.298 10.1234 112.183 23.9627 111.163 28.8096C110.908 29.8938 110.206 30.6591 109.186 30.9142C108.931 30.9142 108.739 30.9142 108.548 30.9142Z" fill="#F9A524"/>
<path d="M43.7503 59.9321C43.3038 59.9321 42.9212 59.7408 42.6661 59.3581C37.1814 50.6847 36.8625 41.3734 41.6457 31.552C41.7732 31.2969 41.837 31.1056 41.9646 30.978C42.2197 30.4041 42.0921 27.7893 42.0283 25.6847C41.7732 19.2433 41.4544 11.2714 45.9824 10.5061C51.4033 9.61324 62.5003 17.2025 63.712 18.0954C64.286 18.478 64.4135 19.3071 64.0309 19.8811C63.6482 20.4551 62.8192 20.5826 62.2452 20.2C59.1202 18.0316 50.064 12.4194 46.3651 13.0571C44.0692 13.4398 44.388 21.6668 44.5794 25.5571C44.7069 29.0648 44.7707 30.9143 44.3243 31.9347C44.2605 32.126 44.1329 32.3173 44.0054 32.6362C42.3472 35.9525 37.3727 46.0928 44.8982 57.9551C45.2809 58.5291 45.0896 59.3581 44.5156 59.7408C44.2605 59.8683 44.0054 59.9321 43.7503 59.9321Z" fill="#EF4E4C"/>
<path d="M70.664 84.7412C69.1971 84.7412 67.7303 84.6774 66.2634 84.6136C55.5492 83.9759 50.6384 78.4274 46.7481 73.9631L46.5568 73.7718C46.2379 73.3891 45.9191 73.0065 45.5364 72.6238C41.9012 68.5422 37.3731 63.5039 37.5645 59.9325C37.6282 58.9121 38.0747 58.083 38.7762 57.3815C38.84 57.3815 38.84 57.3177 38.9037 57.3177C39.0313 57.1902 40.3068 56.3611 42.3476 56.8075C44.9624 57.3177 47.5772 59.6136 50.0645 63.6953C50.4471 64.2692 50.2558 65.0983 49.6818 65.481C49.1078 65.8636 48.2787 65.6723 47.8961 65.0983C44.3247 59.3585 41.4548 58.9121 40.3706 59.4861C40.1793 59.6774 40.1155 59.8687 40.1155 60.1876C39.9879 62.7386 44.6435 67.9044 47.4497 71.0294C47.8323 71.4121 48.1512 71.7947 48.4701 72.1774L48.6614 72.4325C52.4879 76.7692 56.8247 81.6162 66.4548 82.2539C79.9752 83.083 90.6895 80.0218 98.2788 73.0065C102.105 69.4988 104.72 65.4172 106.442 61.5269C100.064 68.4784 91.1359 70.2004 91.0083 70.2004C90.5619 70.2641 90.0517 70.1366 89.7966 69.7539C82.7813 60.8254 73.7252 63.6953 65.7532 66.1825H65.6895C58.8655 68.3509 55.7405 70.6468 55.1665 72.0498C54.9752 72.4325 55.1027 72.6238 55.1027 72.6876C55.5492 73.6442 58.0364 72.9427 58.8655 72.56C58.8655 72.56 58.9293 72.56 58.9293 72.4963L69.7711 68.606C70.4089 68.3509 71.1742 68.7335 71.4293 69.3713C71.6844 70.009 71.3017 70.7743 70.664 71.0294L59.8221 74.9197C57.7813 75.8126 54.0823 76.5779 52.743 73.7718C52.3604 72.8789 52.3604 71.9861 52.8068 71.0294C54.3374 67.5218 61.0338 64.9708 64.9242 63.759H64.9879C72.7685 61.3356 83.2915 58.0192 91.3272 67.5218C94.7711 66.6927 108.993 62.2922 110.269 46.6034C110.332 45.9019 110.906 45.3917 111.608 45.4555C112.309 45.5192 112.82 46.0932 112.82 46.731C112.82 47.4325 112.309 63.6953 100.128 74.856C92.6665 81.3611 82.8451 84.7412 70.664 84.7412Z" fill="#00BCF1"/>
</svg>
