<svg width="1266" height="401" viewBox="0 0 1266 401" fill="none" xmlns="http://www.w3.org/2000/svg">
<path fill-rule="evenodd" clip-rule="evenodd" d="M1219.85 22.2512C1219.73 18.1431 1224.44 14.7211 1228.27 16.1367C1229.13 16.4533 1229.9 16.9523 1230.67 17.4474C1233.47 19.2585 1236.27 21.0701 1239.08 22.8816C1241.38 24.3704 1243.7 25.8716 1245.68 27.7859C1247.44 29.5026 1248.98 31.7581 1248.85 34.2305C1248.68 37.4952 1245.79 39.845 1243.16 41.7483C1240.61 43.5854 1238.07 45.4225 1235.53 47.2596C1233.24 48.9124 1230.81 50.6208 1228 50.9091C1225.2 51.1975 1221.99 49.4763 1221.67 46.6552C1221.37 44.0399 1223.51 41.8695 1224.57 39.4663C1227.77 32.2532 1220.03 28.6985 1219.85 22.2512Z" fill="#5C61AD"/>
<path fill-rule="evenodd" clip-rule="evenodd" d="M1238.34 18.6556C1238.42 19.321 1238.66 19.9857 1239.14 20.4905C1239.65 21.0399 1240.4 21.3572 1241.15 21.5718C1243.52 22.2494 1246.17 22.0197 1248.36 20.9476C1248.96 20.6562 1249.52 20.3068 1250.07 19.9427C1250.5 19.6559 1250.93 19.3569 1251.28 18.9916C1254.18 16.0291 1250.87 11.4287 1247.02 11.4161C1243.03 11.4036 1237.87 14.5678 1238.34 18.6556Z" fill="#5C61AD"/>
<path fill-rule="evenodd" clip-rule="evenodd" d="M1253.05 27.2435C1251.9 28.3077 1251.02 29.9893 1251.77 31.3401C1252 31.7474 1252.35 32.0748 1252.72 32.3794C1254.36 33.7602 1256.35 34.831 1258.51 35.0765C1260.68 35.3219 1263.02 34.6455 1264.42 33.0433C1266.62 30.5339 1265.44 26.7035 1262.54 25.1867C1259.67 23.684 1255.21 25.2416 1253.05 27.2435Z" fill="#5C61AD"/>
<path fill-rule="evenodd" clip-rule="evenodd" d="M1259 38.43C1257.52 37.9655 1255.93 37.653 1254.37 37.8075C1252.8 37.9615 1251.25 38.6368 1250.41 39.8004C1249.35 41.2662 1249.62 43.2651 1250.71 44.713C1251.8 46.1608 1253.58 47.1204 1255.44 47.7377C1258.41 48.7259 1264.07 48.7719 1264.64 45.0063C1265.11 41.8299 1262.05 39.3848 1259 38.43Z" fill="#5C61AD"/>
<path fill-rule="evenodd" clip-rule="evenodd" d="M1250.5 57.2774C1249.41 57.8688 1248.09 58.0257 1246.82 57.9477C1243.8 57.7623 1240.77 56.2157 1239.13 53.8583C1237.58 51.6226 1238.18 48.1194 1241.41 47.4908C1245.59 46.6797 1256.8 53.8795 1250.5 57.2774Z" fill="#5C61AD"/>
<path fill-rule="evenodd" clip-rule="evenodd" d="M1152.65 61.1106C1155.05 62.1045 1156.96 64.0017 1159.13 65.4536C1161.84 67.272 1164.98 68.4173 1167.44 70.5771C1169.9 72.737 1171.55 76.4777 1170.03 79.4128C1169.51 80.4199 1168.67 81.2123 1167.85 81.984C1164.83 84.8324 1161.81 87.6812 1158.79 90.5296C1155.52 93.6148 1150.65 95.8182 1147.06 91.7589C1144.39 88.7438 1146.12 83.8948 1147.36 80.6535C1148.16 78.5975 1148.63 76.0571 1147.28 74.3332C1146.78 73.6904 1146.08 73.2482 1145.48 72.6961C1140.1 67.7164 1145.88 58.3005 1152.65 61.1106Z" fill="#5C61AD"/>
<path fill-rule="evenodd" clip-rule="evenodd" d="M1162.66 58.916C1161.5 60.0722 1160.53 61.7225 1161.12 63.2233C1161.47 64.112 1162.3 64.7392 1163.15 65.2202C1167.5 67.6822 1178.11 67.8248 1176.62 60.4628C1175.41 54.4668 1165.96 55.6097 1162.66 58.916Z" fill="#5C61AD"/>
<path fill-rule="evenodd" clip-rule="evenodd" d="M1182.12 67.2509C1179.74 67.9888 1177.71 70.1496 1177.65 72.6478C1177.63 73.1031 1177.69 73.5688 1177.89 73.9792C1178.19 74.6172 1178.8 75.0498 1179.41 75.4056C1181.76 76.7793 1184.53 77.4316 1187.25 77.2541C1188.91 77.1456 1190.62 76.6986 1191.88 75.6032C1193.15 74.5077 1193.85 72.6583 1193.26 71.0937C1191.64 66.8245 1185.97 66.0596 1182.12 67.2509Z" fill="#5C61AD"/>
<path fill-rule="evenodd" clip-rule="evenodd" d="M1184.91 79.759C1182.81 79.0049 1180.45 78.7015 1178.38 79.5579C1176.32 80.4148 1174.7 82.6726 1175.05 84.9457C1175.36 86.9194 1176.97 88.3711 1178.56 89.5081C1180.61 90.9701 1182.93 92.2502 1185.41 92.2125C1187.9 92.1748 1190.5 90.4058 1190.77 87.8499C1191.25 83.2548 1188.84 81.1694 1184.91 79.759Z" fill="#5C61AD"/>
<path fill-rule="evenodd" clip-rule="evenodd" d="M1167.74 89.5896C1166.1 89.6674 1164.4 90.318 1163.49 91.6347C1160.01 96.663 1168.98 100.355 1172.93 100.102C1177.66 99.7993 1179.15 95.302 1175.95 92.1088C1174.01 90.1783 1170.45 89.4617 1167.74 89.5896Z" fill="#5C61AD"/>
<path fill-rule="evenodd" clip-rule="evenodd" d="M1088.09 16.3312C1087.24 12.3501 1091.25 8.16284 1095.26 8.84987C1096.15 9.00318 1097 9.34953 1097.84 9.69326C1100.92 10.9503 1104 12.2077 1107.07 13.4647C1109.6 14.4981 1112.15 15.5406 1114.43 17.0488C1116.47 18.401 1118.38 20.321 1118.7 22.7525C1119.12 25.9635 1116.7 28.7767 1114.46 31.1077C1112.29 33.3579 1110.12 35.6086 1107.96 37.8592C1106.01 39.8836 1103.93 41.9883 1101.23 42.7758C1098.53 43.5642 1095.07 42.4692 1094.25 39.7783C1093.49 37.284 1095.2 34.7835 1095.81 32.249C1097.65 24.6432 1089.43 22.5795 1088.09 16.3312Z" fill="#5C61AD"/>
<path fill-rule="evenodd" clip-rule="evenodd" d="M1106.65 8.20853C1106.85 8.81736 1107.2 9.39964 1107.74 9.79522C1108.34 10.2257 1109.11 10.4033 1109.86 10.4837C1112.24 10.7382 1114.71 10.1 1116.6 8.74839C1117.11 8.38135 1117.57 7.96555 1118.03 7.53825C1118.38 7.20133 1118.73 6.85411 1119 6.45615C1121.19 3.22805 1117.18 -0.539113 1113.52 0.064173C1109.73 0.688466 1105.43 4.46752 1106.65 8.20853Z" fill="#5C61AD"/>
<path fill-rule="evenodd" clip-rule="evenodd" d="M1121.52 13.5161C1120.58 14.7467 1120.03 16.5309 1121.04 17.7134C1121.34 18.0691 1121.75 18.3266 1122.17 18.5599C1124.06 19.6188 1126.24 20.3162 1128.44 20.1823C1130.64 20.0488 1132.83 18.9895 1133.93 17.193C1135.64 14.3778 1133.73 10.8628 1130.56 9.8877C1127.42 8.92166 1123.29 11.2008 1121.52 13.5161Z" fill="#5C61AD"/>
<path fill-rule="evenodd" clip-rule="evenodd" d="M1130.48 24.7694C1128.97 24.5356 1127.4 24.4759 1125.93 24.8955C1124.46 25.3155 1123.12 26.2723 1122.55 27.615C1121.83 29.3074 1122.49 31.3293 1123.83 32.6452C1125.16 33.9611 1127.06 34.6579 1128.95 34.9877C1131.99 35.5158 1137.42 34.6211 1137.19 30.6338C1137.01 27.2697 1133.59 25.2499 1130.48 24.7694Z" fill="#5C61AD"/>
<path fill-rule="evenodd" clip-rule="evenodd" d="M1125.24 45.102C1124.26 45.9302 1122.97 46.3354 1121.68 46.4806C1118.61 46.8267 1115.26 45.7193 1113.15 43.4968C1111.14 41.3882 1111.03 37.54 1114.15 36.2861C1118.17 34.6679 1130.87 40.3404 1125.24 45.102Z" fill="#5C61AD"/>
<path fill-rule="evenodd" clip-rule="evenodd" d="M1028.44 66.8908C1031 67.4182 1033.26 68.915 1035.68 69.9317C1038.7 71.205 1042.04 71.742 1044.89 73.3942C1047.73 75.0469 1050.05 78.3921 1049.05 81.5377C1048.71 82.6168 1048.02 83.544 1047.34 84.4485C1044.83 87.7861 1042.33 91.1234 1039.82 94.4611C1037.11 98.0756 1032.65 101.126 1028.34 97.8285C1025.14 95.3796 1025.99 90.3298 1026.65 86.9362C1027.08 84.7837 1027.1 82.2174 1025.44 80.7847C1024.83 80.2504 1024.05 79.9483 1023.35 79.52C1017.09 75.6563 1021.17 65.401 1028.44 66.8908Z" fill="#5C61AD"/>
<path fill-rule="evenodd" clip-rule="evenodd" d="M1038.1 61.1156C1037.17 62.4151 1036.52 64.1559 1037.39 65.4891C1037.91 66.2782 1038.85 66.7364 1039.79 67.0519C1044.6 68.665 1055.2 67.0021 1052.31 60.2268C1049.96 54.7083 1040.77 57.3996 1038.1 61.1156Z" fill="#5C61AD"/>
<path fill-rule="evenodd" clip-rule="evenodd" d="M1058.93 66.2986C1056.81 67.445 1055.27 69.9145 1055.65 72.3577C1055.71 72.8023 1055.85 73.2461 1056.1 73.6104C1056.5 74.1763 1057.15 74.4879 1057.78 74.7249C1060.24 75.6383 1062.95 75.7764 1065.48 75.1151C1067.03 74.7098 1068.56 73.9678 1069.56 72.6741C1070.56 71.3809 1070.9 69.4548 1070.07 68.0377C1067.81 64.1722 1062.34 64.4472 1058.93 66.2986Z" fill="#5C61AD"/>
<path fill-rule="evenodd" clip-rule="evenodd" d="M1065.13 78.3166C1062.98 77.974 1060.66 78.1161 1058.82 79.3288C1056.98 80.5416 1055.81 83.0304 1056.54 85.1687C1057.18 87.0254 1058.97 88.1359 1060.69 88.9446C1062.91 89.9843 1065.36 90.7965 1067.74 90.3007C1070.12 89.805 1072.31 87.6083 1072.14 85.0801C1071.81 80.5345 1069.14 78.9575 1065.13 78.3166Z" fill="#5C61AD"/>
<path fill-rule="evenodd" clip-rule="evenodd" d="M1049.03 90.817C1047.45 91.1992 1045.93 92.1859 1045.29 93.7188C1042.86 99.5718 1052.22 101.755 1056 100.765C1060.51 99.5841 1061.12 94.6468 1057.43 91.9235C1055.2 90.2769 1051.62 90.1883 1049.03 90.817Z" fill="#5C61AD"/>
<path fill-rule="evenodd" clip-rule="evenodd" d="M952.246 61.6667C949.517 58.6579 950.916 53.0597 954.745 51.6639C955.6 51.3521 956.512 51.2288 957.415 51.1081C960.719 50.6657 964.023 50.2233 967.327 49.7813C970.042 49.4175 972.778 49.0532 975.512 49.223C977.964 49.3749 980.585 50.0822 982.076 52.0199C984.045 54.5789 983.348 58.2011 982.559 61.3237C981.797 64.3385 981.035 67.3534 980.273 70.3683C979.587 73.0805 978.83 75.9248 976.877 77.9415C974.925 79.9582 971.365 80.7327 969.309 78.8198C967.404 77.0471 967.637 74.0465 966.906 71.5579C964.712 64.088 956.528 66.3887 952.246 61.6667Z" fill="#5C61AD"/>
<path fill-rule="evenodd" clip-rule="evenodd" d="M965.538 44.6811C966.004 45.1568 966.583 45.53 967.218 45.6334C967.911 45.7463 968.616 45.5338 969.259 45.2378C971.293 44.3019 972.956 42.4753 973.782 40.2717C974.006 39.6728 974.17 39.0506 974.316 38.4245C974.431 37.9311 974.536 37.4308 974.552 36.9224C974.677 32.7974 969.563 31.2294 966.937 33.6062C964.217 36.0675 962.672 41.7583 965.538 44.6811Z" fill="#5C61AD"/>
<path fill-rule="evenodd" clip-rule="evenodd" d="M981.625 43.0912C981.459 44.6932 981.94 46.6149 983.493 47.2046C983.96 47.382 984.473 47.4139 984.975 47.4213C987.256 47.4563 989.6 47.012 991.5 45.7945C993.4 44.5774 994.788 42.508 994.781 40.3081C994.769 36.8608 991.124 34.57 987.746 35.2467C984.399 35.9172 981.937 40.0783 981.625 43.0912Z" fill="#5C61AD"/>
<path fill-rule="evenodd" clip-rule="evenodd" d="M993.149 48.0092C991.719 48.5048 990.326 49.176 989.28 50.2025C988.234 51.2282 987.572 52.654 987.786 54.0485C988.056 55.806 989.693 57.2094 991.54 57.7082C993.386 58.207 995.389 57.9281 997.203 57.337C1000.11 56.3906 1004.33 53.1492 1002.04 49.8842C1000.1 47.1302 996.088 46.9912 993.149 48.0092Z" fill="#5C61AD"/>
<path fill-rule="evenodd" clip-rule="evenodd" d="M998.896 67.2364C998.479 68.4068 997.584 69.3674 996.563 70.1045C994.129 71.8597 990.728 72.5123 987.815 71.6294C985.053 70.7921 983.028 67.5725 985.05 65.0205C987.66 61.7268 1001.29 60.5077 998.896 67.2364Z" fill="#5C61AD"/>
<path fill-rule="evenodd" clip-rule="evenodd" d="M925.482 134.29C927.978 133.476 930.681 133.643 933.29 133.319C936.558 132.913 939.729 131.729 943.023 131.737C946.317 131.745 949.993 133.452 950.69 136.618C950.929 137.704 950.79 138.832 950.649 139.935L949.094 152.143C948.533 156.55 946.165 161.339 940.778 160.652C936.777 160.142 935.007 155.429 933.899 152.215C933.197 150.176 931.937 147.984 929.787 147.578C928.985 147.427 928.158 147.552 927.342 147.529C919.974 147.321 918.425 136.592 925.482 134.29Z" fill="#5C61AD"/>
<path fill-rule="evenodd" clip-rule="evenodd" d="M932.379 124.78C932.267 126.582 932.661 128.683 934.233 129.558C935.163 130.075 936.3 130.031 937.348 129.848C942.707 128.908 951.538 121.58 944.979 116.308C939.636 112.015 932.7 119.623 932.379 124.78Z" fill="#5C61AD"/>
<path fill-rule="evenodd" clip-rule="evenodd" d="M951.889 118.344C950.537 120.461 950.378 123.441 951.959 125.393C952.247 125.749 952.593 126.07 953.012 126.256C953.662 126.545 954.412 126.479 955.113 126.354C957.818 125.872 960.37 124.57 962.346 122.664C963.557 121.495 964.579 120.04 964.837 118.379C965.094 116.718 964.43 114.845 962.956 114.032C958.933 111.816 954.072 114.926 951.889 118.344Z" fill="#5C61AD"/>
<path fill-rule="evenodd" clip-rule="evenodd" d="M962.681 127.416C960.623 128.219 958.649 129.521 957.617 131.483C956.587 133.446 956.762 136.15 958.443 137.589C959.901 138.838 962.019 138.866 963.926 138.676C966.378 138.431 968.927 137.874 970.782 136.243C972.637 134.612 973.507 131.634 972.126 129.582C969.643 125.894 966.528 125.916 962.681 127.416Z" fill="#5C61AD"/>
<path fill-rule="evenodd" clip-rule="evenodd" d="M956.268 146.221C955.045 147.257 954.17 148.745 954.365 150.25C955.11 155.998 964.612 153.351 967.514 150.808C970.979 147.772 969.052 143.598 964.372 143.174C961.543 142.917 958.281 144.517 956.268 146.221Z" fill="#5C61AD"/>
<path fill-rule="evenodd" clip-rule="evenodd" d="M851.773 143.761C848.608 141.184 849.198 135.483 852.826 133.575C853.637 133.148 854.531 132.9 855.417 132.655C858.658 131.757 861.899 130.86 865.141 129.963C867.804 129.226 870.488 128.485 873.248 128.269C875.723 128.076 878.447 128.405 880.219 130.102C882.558 132.343 882.385 136.003 882.047 139.184C881.721 142.255 881.394 145.326 881.067 148.398C880.774 151.161 880.428 154.064 878.766 156.32C877.104 158.577 873.655 159.837 871.322 158.243C869.158 156.766 868.959 153.783 867.868 151.438C864.593 144.399 856.738 147.806 851.773 143.761Z" fill="#5C61AD"/>
<path fill-rule="evenodd" clip-rule="evenodd" d="M861.632 125.744C862.182 126.161 862.833 126.454 863.507 126.46C864.242 126.466 864.943 126.135 865.57 125.728C867.55 124.44 869.022 122.292 869.574 119.888C869.723 119.235 869.808 118.567 869.873 117.898C869.924 117.371 869.963 116.839 869.909 116.312C869.467 112.038 863.945 111.232 861.549 114.1C859.067 117.071 858.255 123.185 861.632 125.744Z" fill="#5C61AD"/>
<path fill-rule="evenodd" clip-rule="evenodd" d="M876.977 120.714C877.046 122.365 877.784 124.25 879.36 124.631C879.834 124.746 880.331 124.706 880.815 124.643C883.012 124.358 885.2 123.577 886.851 122.073C888.503 120.569 889.542 118.271 889.221 116.036C888.717 112.535 884.887 110.719 881.738 111.881C878.618 113.033 876.847 117.607 876.977 120.714Z" fill="#5C61AD"/>
<path fill-rule="evenodd" clip-rule="evenodd" d="M889.531 124.19C888.161 124.949 886.856 125.897 885.959 127.188C885.061 128.479 884.616 130.156 885.052 131.671C885.602 133.579 887.48 134.895 889.427 135.177C891.375 135.459 893.359 134.857 895.103 133.935C897.893 132.461 901.655 128.249 898.823 124.966C896.434 122.196 892.346 122.63 889.531 124.19Z" fill="#5C61AD"/>
<path fill-rule="evenodd" clip-rule="evenodd" d="M898.844 143.096C898.598 144.356 897.836 145.469 896.914 146.371C894.717 148.519 891.379 149.676 888.307 149.188C885.392 148.725 882.869 145.715 884.532 142.809C886.679 139.057 900.262 135.854 898.844 143.096Z" fill="#5C61AD"/>
<path fill-rule="evenodd" clip-rule="evenodd" d="M835.831 219.493C838.206 218.306 840.93 218.088 843.489 217.383C846.695 216.501 849.69 214.84 852.981 214.375C856.273 213.911 860.195 215.121 861.351 218.245C861.748 219.317 861.773 220.485 861.793 221.628C861.868 225.845 861.943 230.063 862.018 234.28C862.099 238.848 860.432 244.064 854.951 244.138C850.879 244.193 848.425 239.649 846.85 236.535C845.852 234.561 844.274 232.509 842.067 232.405C841.244 232.366 840.437 232.612 839.617 232.706C832.227 233.551 829.118 222.85 835.831 219.493Z" fill="#5C61AD"/>
<path fill-rule="evenodd" clip-rule="evenodd" d="M840.065 208.959C840.207 210.675 840.884 212.603 842.542 213.213C843.524 213.575 844.629 213.379 845.626 213.064C850.732 211.448 858.342 203.334 851.197 199.255C845.379 195.931 839.66 204.052 840.065 208.959Z" fill="#5C61AD"/>
<path fill-rule="evenodd" clip-rule="evenodd" d="M859.099 200.339C858.081 202.638 858.343 205.626 860.153 207.342C860.483 207.655 860.864 207.926 861.297 208.051C861.97 208.246 862.69 208.074 863.354 207.85C865.917 206.985 868.217 205.326 869.871 203.149C870.886 201.814 871.677 200.22 871.695 198.531C871.713 196.842 870.806 195.073 869.259 194.474C865.037 192.842 860.744 196.628 859.099 200.339Z" fill="#5C61AD"/>
<path fill-rule="evenodd" clip-rule="evenodd" d="M871.896 206.256C870.035 207.361 868.324 208.953 867.605 211.074C866.886 213.194 867.423 215.885 869.228 217.087C870.794 218.131 872.824 217.852 874.623 217.384C876.936 216.783 879.3 215.855 880.852 213.948C882.405 212.042 882.831 208.924 881.229 207.064C878.35 203.718 875.372 204.191 871.896 206.256Z" fill="#5C61AD"/>
<path fill-rule="evenodd" clip-rule="evenodd" d="M866.969 227.548C865.888 228.851 865.237 230.598 865.68 232.213C867.37 238.378 876.638 234.148 879.187 230.964C882.23 227.162 879.588 222.88 874.744 223.078C871.815 223.198 868.747 225.405 866.969 227.548Z" fill="#5C61AD"/>
<path fill-rule="evenodd" clip-rule="evenodd" d="M757.258 205.903C755.194 202.481 757.704 197.383 761.741 196.793C762.643 196.662 763.562 196.722 764.473 196.783C767.802 197.006 771.131 197.228 774.46 197.45C777.196 197.633 779.953 197.82 782.6 198.518C784.973 199.144 787.399 200.335 788.466 202.487C789.877 205.327 788.458 208.667 787.049 211.509C785.689 214.252 784.329 216.996 782.969 219.74C781.745 222.208 780.425 224.789 778.1 226.342C775.776 227.895 772.128 227.941 770.501 225.703C768.993 223.628 769.832 220.795 769.622 218.264C768.989 210.667 760.497 211.272 757.258 205.903Z" fill="#5C61AD"/>
<path fill-rule="evenodd" clip-rule="evenodd" d="M771.534 191.662C771.936 192.256 772.478 192.769 773.138 193.02C773.858 193.292 774.656 193.234 775.407 193.076C777.778 192.577 779.935 191.08 781.271 189.006C781.635 188.443 781.938 187.841 782.224 187.232C782.448 186.752 782.663 186.262 782.784 185.744C783.765 181.541 778.608 178.774 775.306 180.617C771.886 182.526 769.064 188.014 771.534 191.662Z" fill="#5C61AD"/>
<path fill-rule="evenodd" clip-rule="evenodd" d="M788.443 191.145C787.97 192.526 788.037 194.304 789.368 195.094C789.769 195.332 790.24 195.45 790.707 195.544C792.827 195.974 795.101 195.992 797.115 195.252C799.129 194.512 800.835 192.931 801.266 190.992C801.941 187.954 798.997 185.299 795.712 185.304C792.458 185.31 789.334 188.545 788.443 191.145Z" fill="#5C61AD"/>
<path fill-rule="evenodd" clip-rule="evenodd" d="M799.054 200.346C797.567 200.575 796.078 200.991 794.847 201.836C793.617 202.68 792.671 204.007 792.578 205.471C792.461 207.317 793.738 209.066 795.413 209.932C797.088 210.799 799.081 210.902 800.96 210.65C803.966 210.246 808.737 207.755 807.229 203.98C805.957 200.796 802.11 199.877 799.054 200.346Z" fill="#5C61AD"/>
<path fill-rule="evenodd" clip-rule="evenodd" d="M801.604 220.618C800.961 221.708 799.896 222.491 798.754 223.024C796.034 224.295 792.602 224.265 789.957 222.794C787.449 221.399 786.143 217.764 788.627 215.611C791.832 212.834 805.302 214.352 801.604 220.618Z" fill="#5C61AD"/>
<path fill-rule="evenodd" clip-rule="evenodd" d="M717.558 270.572C720.149 270.264 722.741 270.975 725.342 271.178C728.6 271.432 731.921 270.89 735.119 271.563C738.318 272.236 741.544 274.68 741.577 277.978C741.588 279.109 741.223 280.206 740.863 281.277C739.532 285.23 738.201 289.184 736.871 293.138C735.429 297.419 732.156 301.718 727.061 299.946C723.278 298.631 722.516 293.574 722.093 290.145C721.825 287.97 721.047 285.53 719.04 284.692C718.292 284.379 717.463 284.337 716.674 284.15C709.558 282.456 710.234 271.445 717.558 270.572Z" fill="#5C61AD"/>
<path fill-rule="evenodd" clip-rule="evenodd" d="M723.393 263.02C722.949 264.688 722.917 266.733 724.203 267.857C724.964 268.522 726.021 268.702 727.023 268.732C732.148 268.891 741.685 263.735 736.625 257.523C732.503 252.463 724.663 258.249 723.393 263.02Z" fill="#5C61AD"/>
<path fill-rule="evenodd" clip-rule="evenodd" d="M744.373 261.749C742.614 263.602 741.853 266.573 743.013 268.867C743.224 269.285 743.499 269.68 743.873 269.954C744.455 270.379 745.206 270.469 745.922 270.488C748.681 270.562 751.457 269.777 753.787 268.264C755.216 267.337 756.517 266.082 757.108 264.462C757.698 262.841 757.425 260.817 756.139 259.693C752.63 256.628 747.214 258.756 744.373 261.749Z" fill="#5C61AD"/>
<path fill-rule="evenodd" clip-rule="evenodd" d="M753.751 270.753C751.618 271.142 749.467 272.066 748.092 273.874C746.717 275.682 746.354 278.513 747.685 280.359C748.84 281.962 750.867 282.443 752.735 282.654C755.136 282.925 757.693 282.894 759.794 281.605C761.894 280.317 763.315 277.424 762.392 275.009C760.732 270.667 757.738 270.024 753.751 270.753Z" fill="#5C61AD"/>
<path fill-rule="evenodd" clip-rule="evenodd" d="M744.288 289.09C742.896 289.942 741.74 291.337 741.6 292.96C741.062 299.158 750.694 298.231 754.012 296.12C757.973 293.601 757.043 288.829 752.674 287.466C750.032 286.642 746.576 287.689 744.288 289.09Z" fill="#5C61AD"/>
<path fill-rule="evenodd" clip-rule="evenodd" d="M651.035 222.786C650.743 218.679 655.225 215.045 659.043 216.292C659.896 216.57 660.678 217.035 661.453 217.497C664.285 219.186 667.116 220.874 669.948 222.562C672.275 223.95 674.62 225.35 676.638 227.177C678.449 228.817 680.052 231.007 680.034 233.487C680.009 236.762 677.271 239.243 674.764 241.264C672.343 243.216 669.923 245.168 667.503 247.12C665.325 248.875 663.012 250.694 660.273 251.106C657.535 251.52 654.303 249.94 653.867 247.13C653.464 244.526 655.467 242.259 656.409 239.806C659.239 232.445 651.493 229.23 651.035 222.786Z" fill="#5C61AD"/>
<path fill-rule="evenodd" clip-rule="evenodd" d="M668.666 219.147C668.775 219.801 669.05 220.447 669.55 220.926C670.094 221.447 670.858 221.731 671.622 221.912C674.035 222.486 676.692 222.152 678.846 221.005C679.431 220.693 679.978 220.326 680.511 219.945C680.931 219.644 681.346 219.331 681.687 218.957C684.454 215.916 680.909 211.509 677.04 211.652C673.032 211.8 667.995 215.131 668.666 219.147Z" fill="#5C61AD"/>
<path fill-rule="evenodd" clip-rule="evenodd" d="M684.094 226.014C682.995 227.123 682.189 228.836 683.005 230.151C683.251 230.547 683.619 230.859 683.994 231.147C685.697 232.454 687.739 233.438 689.916 233.591C692.092 233.745 694.401 232.971 695.733 231.316C697.82 228.721 696.457 224.953 693.492 223.563C690.554 222.186 686.162 223.927 684.094 226.014Z" fill="#5C61AD"/>
<path fill-rule="evenodd" clip-rule="evenodd" d="M690.805 237.65C689.312 237.237 687.727 236.982 686.183 237.199C684.638 237.416 683.133 238.161 682.357 239.372C681.38 240.899 681.75 242.913 682.904 244.338C684.058 245.761 685.869 246.665 687.738 247.218C690.732 248.103 696.351 247.929 696.72 244.093C697.03 240.857 693.876 238.498 690.805 237.65Z" fill="#5C61AD"/>
<path fill-rule="evenodd" clip-rule="evenodd" d="M684.344 255.597C683.225 256.245 681.847 256.459 680.512 256.432C677.33 256.367 674.075 254.914 672.24 252.578C670.499 250.363 670.944 246.767 674.31 245.993C678.653 244.995 690.777 251.875 684.344 255.597Z" fill="#5C61AD"/>
<path fill-rule="evenodd" clip-rule="evenodd" d="M583.982 264.752C586.541 265.639 588.637 267.452 590.973 268.808C593.899 270.507 597.246 271.511 599.926 273.564C602.606 275.616 604.505 279.288 603.037 282.297C602.533 283.329 601.694 284.161 600.87 284.971C597.83 287.961 594.789 290.951 591.749 293.941C588.456 297.18 583.445 299.608 579.494 295.704C576.561 292.805 578.149 287.87 579.314 284.566C580.053 282.471 580.436 279.905 578.944 278.24C578.388 277.618 577.633 277.207 576.982 276.681C571.109 271.937 576.748 262.244 583.982 264.752Z" fill="#5C61AD"/>
<path fill-rule="evenodd" clip-rule="evenodd" d="M594.567 261.232C593.464 262.432 592.563 264.116 593.222 265.586C593.612 266.455 594.471 267.045 595.344 267.488C599.81 269.756 610.443 269.449 608.614 262.182C607.123 256.264 597.722 257.8 594.567 261.232Z" fill="#5C61AD"/>
<path fill-rule="evenodd" clip-rule="evenodd" d="M613.952 268.537C611.601 269.38 609.658 271.633 609.708 274.136C609.717 274.592 609.793 275.056 610.007 275.458C610.341 276.083 610.969 276.489 611.596 276.819C614.012 278.089 616.808 278.62 619.52 278.323C621.183 278.14 622.873 277.617 624.088 276.465C625.303 275.313 625.925 273.431 625.263 271.891C623.459 267.689 617.748 267.174 613.952 268.537Z" fill="#5C61AD"/>
<path fill-rule="evenodd" clip-rule="evenodd" d="M618.471 281.595C616.351 280.928 613.993 280.729 611.979 281.693C609.964 282.657 608.451 285.019 608.902 287.306C609.294 289.292 610.954 290.689 612.579 291.768C614.67 293.155 617.028 294.345 619.492 294.192C621.956 294.039 624.465 292.126 624.625 289.524C624.912 284.845 622.433 282.843 618.471 281.595Z" fill="#5C61AD"/>
<path fill-rule="evenodd" clip-rule="evenodd" d="M601.329 292.505C599.699 292.655 598.04 293.388 597.194 294.764C593.963 300.018 603.041 303.381 606.961 302.954C611.642 302.444 612.921 297.815 609.594 294.71C607.582 292.833 604.009 292.259 601.329 292.505Z" fill="#5C61AD"/>
<path fill-rule="evenodd" clip-rule="evenodd" d="M539.885 195.141C540.885 191.192 546.349 189.216 549.648 191.61C550.385 192.145 550.996 192.832 551.6 193.514C553.808 196.006 556.017 198.499 558.226 200.991C560.041 203.039 561.869 205.105 563.248 207.467C564.486 209.587 565.352 212.156 564.56 214.479C563.514 217.545 560.095 218.997 557.042 220.092C554.095 221.149 551.147 222.206 548.2 223.263C545.548 224.214 542.746 225.179 539.972 224.69C537.197 224.2 534.568 221.682 535.025 218.905C535.448 216.331 538.089 214.843 539.766 212.843C544.797 206.838 538.316 201.339 539.885 195.141Z" fill="#5C61AD"/>
<path fill-rule="evenodd" clip-rule="evenodd" d="M559.653 196.79C559.534 197.486 559.57 198.226 559.87 198.865C560.197 199.562 560.806 200.083 561.449 200.502C563.48 201.824 566.04 202.301 568.409 201.799C569.053 201.663 569.68 201.458 570.299 201.235C570.787 201.059 571.274 200.869 571.714 200.594C575.284 198.36 573.496 192.802 569.883 191.759C566.142 190.679 560.382 192.511 559.653 196.79Z" fill="#5C61AD"/>
<path fill-rule="evenodd" clip-rule="evenodd" d="M570.851 207.449C569.427 208.167 568.085 209.546 568.43 211.035C568.534 211.484 568.783 211.889 569.048 212.275C570.247 214.024 571.88 215.569 573.918 216.369C575.955 217.169 578.428 217.132 580.257 215.966C583.123 214.14 583.068 210.165 580.685 207.958C578.323 205.771 573.53 206.097 570.851 207.449Z" fill="#5C61AD"/>
<path fill-rule="evenodd" clip-rule="evenodd" d="M574.22 219.816C572.936 218.907 571.509 218.139 569.951 217.884C568.394 217.629 566.685 217.946 565.51 218.988C564.029 220.302 563.664 222.557 564.263 224.432C564.861 226.308 566.274 227.836 567.869 229.012C570.422 230.893 575.869 232.476 577.59 228.518C579.043 225.179 576.86 221.683 574.22 219.816Z" fill="#5C61AD"/>
<path fill-rule="evenodd" clip-rule="evenodd" d="M560.341 236.082C559.075 236.41 557.72 236.211 556.488 235.776C553.554 234.736 551.032 232.24 550.137 229.263C549.288 226.44 550.951 222.855 554.348 223.082C558.733 223.375 567.613 234.194 560.341 236.082Z" fill="#5C61AD"/>
<path fill-rule="evenodd" clip-rule="evenodd" d="M464.57 213.941C466.602 215.544 467.937 217.868 469.626 219.839C471.741 222.308 474.447 224.259 476.234 226.983C478.022 229.706 478.613 233.701 476.376 236.057C475.608 236.865 474.6 237.385 473.612 237.889C469.966 239.75 466.32 241.611 462.674 243.472C458.725 245.489 453.478 246.229 451.111 241.396C449.353 237.807 452.285 233.694 454.338 230.972C455.64 229.245 456.767 226.973 455.931 224.97C455.62 224.223 455.065 223.611 454.64 222.924C450.8 216.725 458.824 209.412 464.57 213.941Z" fill="#5C61AD"/>
<path fill-rule="evenodd" clip-rule="evenodd" d="M475.282 213.555C473.835 214.338 472.42 215.627 472.563 217.176C472.647 218.092 473.271 218.888 473.957 219.553C477.465 222.954 487.701 225.791 488.356 218.553C488.89 212.658 479.422 211.316 475.282 213.555Z" fill="#5C61AD"/>
<path fill-rule="evenodd" clip-rule="evenodd" d="M492.302 227.463C489.917 227.516 487.479 228.938 486.773 231.17C486.644 231.576 486.573 232.009 486.647 232.429C486.762 233.081 487.211 233.625 487.679 234.101C489.489 235.939 491.865 237.234 494.413 237.769C495.976 238.098 497.665 238.133 499.113 237.471C500.56 236.809 501.689 235.326 501.552 233.768C501.177 229.515 496.154 227.375 492.302 227.463Z" fill="#5C61AD"/>
<path fill-rule="evenodd" clip-rule="evenodd" d="M491.295 240.024C489.48 238.736 487.299 237.8 485.096 238.034C482.894 238.269 480.75 239.941 480.496 242.173C480.275 244.111 481.435 245.917 482.657 247.423C484.23 249.358 486.116 251.2 488.503 251.85C490.891 252.499 493.847 251.556 494.775 249.231C496.446 245.052 494.688 242.431 491.295 240.024Z" fill="#5C61AD"/>
<path fill-rule="evenodd" clip-rule="evenodd" d="M471.195 245.203C469.501 244.831 467.578 245.018 466.255 246.09C461.206 250.183 469.213 256.344 473.313 257.173C478.207 258.164 481.075 254.059 478.778 249.977C477.389 247.509 473.982 245.814 471.195 245.203Z" fill="#5C61AD"/>
<path fill-rule="evenodd" clip-rule="evenodd" d="M404.094 158.605C403.243 154.624 407.255 150.438 411.263 151.125C412.158 151.279 413.007 151.626 413.848 151.969C416.925 153.227 420.001 154.485 423.078 155.743C425.606 156.777 428.153 157.82 430.43 159.328C432.473 160.681 434.383 162.601 434.702 165.032C435.121 168.243 432.705 171.056 430.46 173.387C428.291 175.637 426.123 177.886 423.955 180.136C422.004 182.161 419.925 184.264 417.228 185.052C414.531 185.839 411.067 184.744 410.248 182.053C409.489 179.558 411.194 177.058 411.809 174.524C413.653 166.919 405.429 164.853 404.094 158.605Z" fill="#5C61AD"/>
<path fill-rule="evenodd" clip-rule="evenodd" d="M422.648 150.476C422.847 151.085 423.201 151.667 423.746 152.063C424.34 152.493 425.107 152.671 425.86 152.752C428.238 153.007 430.715 152.369 432.597 151.018C433.108 150.651 433.575 150.235 434.027 149.808C434.383 149.471 434.733 149.124 435.002 148.726C437.193 145.498 433.183 141.73 429.525 142.332C425.736 142.956 421.429 146.735 422.648 150.476Z" fill="#5C61AD"/>
<path fill-rule="evenodd" clip-rule="evenodd" d="M438.408 155.79C437.47 157.021 436.914 158.805 437.919 159.987C438.223 160.343 438.636 160.601 439.053 160.834C440.944 161.894 443.128 162.591 445.325 162.458C447.523 162.325 449.718 161.266 450.81 159.47C452.52 156.654 450.611 153.139 447.447 152.164C444.31 151.197 440.173 153.475 438.408 155.79Z" fill="#5C61AD"/>
<path fill-rule="evenodd" clip-rule="evenodd" d="M445.614 166.171C444.102 165.936 442.527 165.877 441.061 166.296C439.596 166.716 438.248 167.672 437.678 169.015C436.961 170.707 437.623 172.728 438.958 174.045C440.293 175.361 442.186 176.058 444.083 176.388C447.121 176.917 452.546 176.023 452.324 172.036C452.137 168.672 448.72 166.651 445.614 166.171Z" fill="#5C61AD"/>
<path fill-rule="evenodd" clip-rule="evenodd" d="M440.366 186.499C439.387 187.327 438.094 187.731 436.806 187.877C433.737 188.222 430.389 187.114 428.273 184.891C426.266 182.782 426.154 178.935 429.274 177.681C433.3 176.065 445.993 181.739 440.366 186.499Z" fill="#5C61AD"/>
<path fill-rule="evenodd" clip-rule="evenodd" d="M344.445 209.163C347.014 209.691 349.266 211.188 351.684 212.205C354.714 213.479 358.054 214.017 360.896 215.67C363.739 217.323 366.054 220.668 365.056 223.814C364.714 224.893 364.023 225.82 363.344 226.724L355.829 236.735C353.117 240.349 348.65 243.398 344.341 240.1C341.141 237.651 341.993 232.601 342.66 229.208C343.083 227.055 343.103 224.489 341.45 223.056C340.833 222.522 340.055 222.219 339.361 221.791C333.098 217.926 337.182 207.672 344.445 209.163Z" fill="#5C61AD"/>
<path fill-rule="evenodd" clip-rule="evenodd" d="M354.109 202.508C353.178 203.808 352.521 205.548 353.394 206.882C353.911 207.671 354.857 208.13 355.796 208.445C360.6 210.06 371.208 208.398 368.319 201.622C365.966 196.103 356.772 198.792 354.109 202.508Z" fill="#5C61AD"/>
<path fill-rule="evenodd" clip-rule="evenodd" d="M375.659 207.684C373.544 208.83 372.002 211.299 372.377 213.743C372.445 214.188 372.577 214.632 372.833 214.996C373.231 215.562 373.879 215.874 374.514 216.111C376.967 217.025 379.683 217.163 382.21 216.503C383.759 216.097 385.29 215.356 386.288 214.063C387.287 212.769 387.629 210.843 386.801 209.425C384.543 205.56 379.073 205.834 375.659 207.684Z" fill="#5C61AD"/>
<path fill-rule="evenodd" clip-rule="evenodd" d="M380.251 220.603C378.101 220.26 375.78 220.401 373.941 221.614C372.103 222.826 370.932 225.315 371.664 227.453C372.3 229.309 374.095 230.42 375.816 231.229C378.029 232.269 380.478 233.082 382.858 232.587C385.238 232.092 387.436 229.896 387.258 227.367C386.939 222.822 384.269 221.244 380.251 220.603Z" fill="#5C61AD"/>
<path fill-rule="evenodd" clip-rule="evenodd" d="M364.158 233.088C362.583 233.471 361.059 234.457 360.421 235.989C357.983 241.841 367.343 244.026 371.124 243.038C375.64 241.858 376.251 236.921 372.561 234.197C370.33 232.55 366.75 232.46 364.158 233.088Z" fill="#5C61AD"/>
<path fill-rule="evenodd" clip-rule="evenodd" d="M270.662 200.976C268.12 197.804 269.842 192.279 273.739 191.103C274.61 190.84 275.526 190.77 276.433 190.702C279.751 190.45 283.069 190.199 286.387 189.949C289.114 189.742 291.861 189.536 294.576 189.865C297.01 190.16 299.58 191.021 300.952 193.048C302.763 195.725 301.856 199.313 300.886 202.394C299.95 205.369 299.014 208.345 298.077 211.32C297.235 213.997 296.314 216.801 294.249 218.708C292.186 220.615 288.593 221.183 286.657 219.148C284.862 217.261 285.271 214.27 284.689 211.735C282.941 204.126 274.651 205.954 270.662 200.976Z" fill="#5C61AD"/>
<path fill-rule="evenodd" clip-rule="evenodd" d="M283.944 185.057C284.375 185.567 284.921 185.981 285.539 186.126C286.211 186.283 286.913 186.113 287.559 185.855C289.6 185.039 291.327 183.299 292.253 181.126C292.504 180.535 292.698 179.916 292.875 179.293C293.014 178.802 293.143 178.303 293.185 177.791C293.528 173.632 288.604 171.724 285.905 173.958C283.109 176.272 281.294 181.923 283.944 185.057Z" fill="#5C61AD"/>
<path fill-rule="evenodd" clip-rule="evenodd" d="M298.552 182.429C298.293 184.044 298.652 186.022 300.143 186.708C300.593 186.915 301.095 186.977 301.589 187.013C303.829 187.179 306.16 186.863 308.1 185.737C310.041 184.61 311.53 182.59 311.654 180.358C311.848 176.861 308.4 174.328 305.039 174.821C301.707 175.309 299.038 179.39 298.552 182.429Z" fill="#5C61AD"/>
<path fill-rule="evenodd" clip-rule="evenodd" d="M311.223 188.356C309.774 188.78 308.349 189.384 307.247 190.366C306.145 191.348 305.399 192.756 305.523 194.18C305.681 195.975 307.216 197.486 309.016 198.093C310.817 198.699 312.821 198.525 314.658 198.026C317.598 197.226 321.988 194.173 319.921 190.741C318.178 187.846 314.202 187.485 311.223 188.356Z" fill="#5C61AD"/>
<path fill-rule="evenodd" clip-rule="evenodd" d="M315.693 208.155C315.21 209.317 314.264 210.237 313.205 210.924C310.683 212.561 307.267 213.025 304.426 211.963C301.733 210.956 299.913 207.58 302.073 205.114C304.862 201.93 318.471 201.482 315.693 208.155Z" fill="#5C61AD"/>
<path fill-rule="evenodd" clip-rule="evenodd" d="M239.213 272.068C241.742 271.397 244.417 271.719 247.029 271.545C250.301 271.327 253.522 270.324 256.795 270.521C260.068 270.719 263.621 272.64 264.126 275.85C264.299 276.951 264.094 278.072 263.889 279.168C263.133 283.212 262.378 287.256 261.622 291.3C260.803 295.68 258.167 300.338 252.855 299.341C248.909 298.6 247.429 293.78 246.518 290.498C245.94 288.416 244.818 286.149 242.706 285.619C241.917 285.422 241.088 285.5 240.278 285.429C232.969 284.797 232.064 273.967 239.213 272.068Z" fill="#5C61AD"/>
<path fill-rule="evenodd" clip-rule="evenodd" d="M245.793 261.776C245.58 263.501 245.847 265.542 247.338 266.471C248.22 267.021 249.337 267.043 250.374 266.926C255.681 266.326 264.755 259.783 258.626 254.348C253.634 249.922 246.401 256.84 245.793 261.776Z" fill="#5C61AD"/>
<path fill-rule="evenodd" clip-rule="evenodd" d="M266.414 256.763C264.876 258.854 264.528 261.901 266.057 263.997C266.336 264.379 266.676 264.729 267.101 264.945C267.761 265.281 268.547 265.258 269.286 265.172C272.134 264.839 274.874 263.656 277.049 261.819C278.383 260.693 279.538 259.262 279.908 257.574C280.277 255.885 279.7 253.924 278.213 253.003C274.155 250.49 268.898 253.388 266.414 256.763Z" fill="#5C61AD"/>
<path fill-rule="evenodd" clip-rule="evenodd" d="M276.391 265.952C274.306 266.647 272.274 267.855 271.14 269.794C270.005 271.732 270.023 274.498 271.605 276.066C272.979 277.426 275.075 277.582 276.976 277.502C279.419 277.399 281.977 276.984 283.909 275.434C285.841 273.883 286.875 270.899 285.625 268.725C283.377 264.817 280.29 264.654 276.391 265.952Z" fill="#5C61AD"/>
<path fill-rule="evenodd" clip-rule="evenodd" d="M268.974 285.538C267.698 286.53 266.739 288.003 266.835 289.55C267.204 295.46 276.768 293.27 279.799 290.829C283.418 287.916 281.781 283.549 277.181 282.863C274.4 282.448 271.074 283.906 268.974 285.538Z" fill="#5C61AD"/>
<path fill-rule="evenodd" clip-rule="evenodd" d="M166.625 266.157C164.369 262.784 166.568 257.441 170.554 256.611C171.445 256.425 172.364 256.435 173.274 256.445C176.602 256.483 179.931 256.521 183.259 256.558C185.995 256.59 188.751 256.623 191.427 257.185C193.828 257.689 196.313 258.767 197.503 260.901C199.075 263.719 197.858 267.205 196.622 270.184C195.429 273.06 194.236 275.936 193.043 278.812C191.97 281.399 190.806 284.107 188.583 285.823C186.359 287.539 182.73 287.793 180.978 285.603C179.354 283.572 180.023 280.634 179.664 278.064C178.587 270.351 170.166 271.45 166.625 266.157Z" fill="#5C61AD"/>
<path fill-rule="evenodd" clip-rule="evenodd" d="M180.048 251.553C180.49 252.114 181.071 252.588 181.755 252.796C182.502 253.023 183.309 252.919 184.063 252.72C186.443 252.091 188.55 250.493 189.791 248.375C190.127 247.8 190.402 247.19 190.657 246.574C190.858 246.089 191.049 245.595 191.142 245.078C191.901 240.886 186.505 238.461 183.254 240.467C179.888 242.543 177.332 248.108 180.048 251.553Z" fill="#5C61AD"/>
<path fill-rule="evenodd" clip-rule="evenodd" d="M197.553 250.444C197.162 252.064 197.343 254.107 198.739 254.937C199.16 255.187 199.644 255.294 200.123 255.375C202.294 255.741 204.594 255.626 206.583 254.652C208.572 253.679 210.198 251.757 210.51 249.498C210.999 245.958 207.853 243.078 204.532 243.282C201.241 243.484 198.288 247.397 197.553 250.444Z" fill="#5C61AD"/>
<path fill-rule="evenodd" clip-rule="evenodd" d="M208.818 257.534C207.344 257.843 205.879 258.337 204.697 259.24C203.516 260.145 202.648 261.51 202.641 262.965C202.632 264.798 204.013 266.459 205.74 267.224C207.466 267.989 209.466 267.981 211.33 267.627C214.314 267.061 218.94 264.332 217.21 260.679C215.75 257.597 211.847 256.9 208.818 257.534Z" fill="#5C61AD"/>
<path fill-rule="evenodd" clip-rule="evenodd" d="M211.794 278.165C211.213 279.291 210.194 280.135 209.084 280.734C206.439 282.16 203.009 282.329 200.284 281.012C197.7 279.762 196.189 276.206 198.548 273.912C201.591 270.951 215.131 271.691 211.794 278.165Z" fill="#5C61AD"/>
<path fill-rule="evenodd" clip-rule="evenodd" d="M130.76 333.915C133.329 333.461 135.957 334.016 138.565 334.069C141.832 334.134 145.117 333.408 148.349 333.89C151.581 334.373 154.939 336.605 155.159 339.864C155.235 340.983 154.933 342.088 154.634 343.168C153.529 347.154 152.425 351.14 151.32 355.126C150.124 359.444 147.1 363.882 141.913 362.422C138.061 361.337 137.014 356.379 136.397 353.013C136.006 350.877 135.09 348.509 133.04 347.794C132.274 347.528 131.445 347.534 130.647 347.394C123.447 346.125 123.497 335.197 130.76 333.915Z" fill="#5C61AD"/>
<path fill-rule="evenodd" clip-rule="evenodd" d="M136.886 324.486C136.531 326.248 136.614 328.377 137.982 329.468C138.792 330.114 139.874 330.236 140.891 330.208C146.096 330.06 155.471 324.116 149.987 317.964C145.521 312.953 137.901 319.448 136.886 324.486Z" fill="#5C61AD"/>
<path fill-rule="evenodd" clip-rule="evenodd" d="M157.73 322.686C156.053 324.585 155.452 327.513 156.756 329.674C156.994 330.067 157.295 330.435 157.69 330.68C158.303 331.06 159.069 331.104 159.794 331.082C162.594 330.997 165.361 330.077 167.635 328.476C169.03 327.495 170.277 326.203 170.783 324.595C171.289 322.989 170.897 321.038 169.53 320.021C165.801 317.245 160.438 319.619 157.73 322.686Z" fill="#5C61AD"/>
<path fill-rule="evenodd" clip-rule="evenodd" d="M167.006 330.635C164.889 331.152 162.782 332.197 161.5 334.07C160.217 335.943 160.004 338.767 161.436 340.512C162.678 342.027 164.736 342.379 166.62 342.473C169.041 342.593 171.602 342.406 173.639 341.002C175.677 339.598 176.947 336.649 175.894 334.316C174 330.121 170.965 329.669 167.006 330.635Z" fill="#5C61AD"/>
<path fill-rule="evenodd" clip-rule="evenodd" d="M158.528 350.018C157.18 350.931 156.099 352.365 156.051 353.963C155.869 360.071 165.49 358.621 168.7 356.366C172.533 353.674 171.324 349.046 166.856 347.956C164.156 347.296 160.746 348.516 158.528 350.018Z" fill="#5C61AD"/>
<path fill-rule="evenodd" clip-rule="evenodd" d="M55.39 309.017C53.7441 305.319 56.8999 300.469 61.0296 300.351C61.9523 300.325 62.8674 300.495 63.7741 300.664L73.7226 302.518C76.4476 303.025 79.1929 303.539 81.7641 304.557C84.0699 305.47 86.3575 306.959 87.1618 309.258C88.2241 312.292 86.3823 315.496 84.6128 318.199C82.9048 320.808 81.1965 323.417 79.4885 326.026C77.9516 328.373 76.3035 330.823 73.7753 332.116C71.2471 333.409 67.5773 333.025 66.2226 330.573C64.9662 328.3 66.1623 325.539 66.266 322.958C66.5784 315.214 57.9736 314.821 55.39 309.017Z" fill="#5C61AD"/>
<path fill-rule="evenodd" clip-rule="evenodd" d="M71.3903 297.631C71.7322 298.248 72.2284 298.804 72.8773 299.123C73.5836 299.469 74.4117 299.508 75.2025 299.446C77.7009 299.249 80.0998 298.071 81.7247 296.242C82.1658 295.746 82.5509 295.205 82.9175 294.655C83.2063 294.222 83.4864 293.778 83.6733 293.296C85.1895 289.385 80.2199 286.121 76.6013 287.495C72.8546 288.918 69.2902 293.842 71.3903 297.631Z" fill="#5C61AD"/>
<path fill-rule="evenodd" clip-rule="evenodd" d="M88.004 299.341C87.3251 300.688 87.1508 302.496 88.4191 303.445C88.8014 303.731 89.2732 303.902 89.7435 304.05C91.8776 304.72 94.2278 304.992 96.4121 304.466C98.5965 303.941 100.579 302.53 101.289 300.614C102.403 297.611 99.721 294.593 96.3227 294.234C92.955 293.877 89.2808 296.807 88.004 299.341Z" fill="#5C61AD"/>
<path fill-rule="evenodd" clip-rule="evenodd" d="M98.1228 308.259C96.6173 308.312 95.0865 308.553 93.7592 309.253C92.4328 309.953 91.3298 311.168 91.0572 312.623C90.7138 314.455 91.7685 316.355 93.3266 317.419C94.8848 318.483 96.8534 318.82 98.7506 318.789C101.788 318.739 106.835 316.808 105.801 312.855C104.928 309.52 101.217 308.148 98.1228 308.259Z" fill="#5C61AD"/>
<path fill-rule="evenodd" clip-rule="evenodd" d="M97.1276 328.624C96.3559 329.609 95.1998 330.245 93.9971 330.629C91.1321 331.544 87.7122 331.11 85.249 329.365C82.9133 327.71 82.0445 324.018 84.7789 322.217C88.3081 319.893 101.564 322.963 97.1276 328.624Z" fill="#5C61AD"/>
<path fill-rule="evenodd" clip-rule="evenodd" d="M7.16953 370.085C9.78571 370.092 12.281 371.101 14.8465 371.611C18.0592 372.25 21.4305 372.115 24.5349 373.158C27.6393 374.201 30.5596 376.988 30.2009 380.232C30.0775 381.344 29.584 382.377 29.0975 383.387C27.3027 387.112 25.5075 390.837 23.7123 394.561C21.768 398.595 17.9977 402.426 13.1366 400.077C9.52621 398.333 9.36939 393.274 9.35596 389.855C9.34773 387.687 8.8634 385.197 6.96548 384.133C6.25718 383.736 5.4371 383.596 4.67421 383.318C-2.20826 380.803 -0.226308 370.067 7.16953 370.085Z" fill="#5C61AD"/>
<path fill-rule="evenodd" clip-rule="evenodd" d="M15.9176 361.881C15.2988 363.452 15.0339 365.44 16.1474 366.688C16.8063 367.427 17.8069 367.729 18.7704 367.879C23.6997 368.647 33.4941 364.77 29.3172 358.114C25.915 352.694 17.6866 357.389 15.9176 361.881Z" fill="#5C61AD"/>
<path fill-rule="evenodd" clip-rule="evenodd" d="M37.1483 363.349C35.2357 364.817 34.1609 367.397 35.0206 369.583C35.1773 369.982 35.398 370.366 35.7287 370.653C36.2422 371.1 36.9589 371.262 37.6482 371.359C40.3079 371.73 43.082 371.332 45.5077 370.233C46.9948 369.56 48.3964 368.579 49.1521 367.19C49.9079 365.802 49.8748 363.955 48.7592 362.805C45.716 359.668 40.2371 360.979 37.1483 363.349Z" fill="#5C61AD"/>
<path fill-rule="evenodd" clip-rule="evenodd" d="M44.973 374.144C42.8205 374.239 40.5911 374.788 39.0321 376.18C37.473 377.572 36.8023 379.951 37.9148 381.678C38.8809 383.176 40.8326 383.814 42.6567 384.202C45.0024 384.701 47.5346 384.96 49.7543 384.093C51.9736 383.226 53.6973 380.912 53.0509 378.746C51.888 374.849 48.9979 373.966 44.973 374.144Z" fill="#5C61AD"/>
<path fill-rule="evenodd" clip-rule="evenodd" d="M31.7954 389.413C30.3241 390.111 29.0198 391.392 28.6886 393.03C27.4223 399.283 37.0153 399.519 40.5325 397.774C44.7319 395.692 44.384 390.712 40.2445 388.786C37.7415 387.623 34.2154 388.266 31.7954 389.413Z" fill="#5C61AD"/>
</svg>
